<svg xmlns="http://www.w3.org/2000/svg" version="1.1" width="295px" height="285px" viewBox="0 0 295 285" style="shape-rendering:geometricPrecision; text-rendering:geometricPrecision; image-rendering:optimizeQuality; fill-rule:evenodd; clip-rule:evenodd" xmlns:xlink="http://www.w3.org/1999/xlink">
<g><path style="opacity:0.931" fill="#fdfffd" d="M 50.5,54.5 C 60.7178,52.3954 67.8845,56.062 72,65.5C 73.1869,80.3131 66.3535,87.1465 51.5,86C 39.8995,79.7937 37.3995,70.9604 44,59.5C 46.3256,57.9343 48.4922,56.2676 50.5,54.5 Z"/></g>
<g><path style="opacity:0.932" fill="#fdfffd" d="M 113.5,54.5 C 128.332,53.1701 135.499,59.8368 135,74.5C 130.166,86.1644 122,89.3311 110.5,84C 102.088,76.7098 100.921,68.5432 107,59.5C 109.326,57.9343 111.492,56.2676 113.5,54.5 Z"/></g>
<g><path style="opacity:0.93" fill="#fdfffd" d="M 176.5,54.5 C 189.244,52.5943 196.577,57.9276 198.5,70.5C 196.771,82.7219 189.771,87.8886 177.5,86C 166.046,80.4115 163.213,71.9115 169,60.5C 171.114,57.8792 173.614,55.8792 176.5,54.5 Z"/></g>
<g><path style="opacity:0.844" fill="#fdfffd" d="M 242.5,54.5 C 256.241,52.9244 263.408,58.9244 264,72.5C 261.004,83.4237 253.838,87.9237 242.5,86C 231.91,80.5636 229.076,72.397 234,61.5C 236.441,58.5464 239.275,56.2131 242.5,54.5 Z M 245.5,61.5 C 254.882,62.0379 258.048,66.7046 255,75.5C 249.626,80.82 244.626,80.4867 240,74.5C 238.104,68.4345 239.938,64.1012 245.5,61.5 Z"/></g>
<g><path style="opacity:0.929" fill="#fdfffd" d="M 49.5,88.5 C 61.1879,87.6025 71.8546,90.4358 81.5,97C 82.7014,97.9025 83.5348,99.0692 84,100.5C 85.3326,105.828 86.6659,111.162 88,116.5C 88.9518,110.74 90.2851,105.074 92,99.5C 107.411,86.7292 123.911,85.2292 141.5,95C 144,96.1667 145.833,98 147,100.5C 148.333,105.828 149.666,111.162 151,116.5C 152,111.833 153,107.167 154,102.5C 154.346,100.152 155.513,98.3189 157.5,97C 175.039,85.2818 192.206,85.7818 209,98.5C 212.281,108.237 214.281,118.237 215,128.5C 216.41,120.115 218.077,111.782 220,103.5C 223.997,99.1907 228.83,96.0241 234.5,94C 248.984,89.8584 262.318,92.1917 274.5,101C 275.717,102.648 276.55,104.481 277,106.5C 279.333,119.833 281.667,133.167 284,146.5C 286.311,157.84 281.811,163.34 270.5,163C 267.833,161 267.833,159 270.5,157C 274.217,156.998 276.55,155.331 277.5,152C 274.721,136.823 271.887,121.657 269,106.5C 255,97.1667 241,97.1667 227,106.5C 223.795,124.863 219.961,143.03 215.5,161C 213.866,161.494 212.199,161.66 210.5,161.5C 205.929,146.211 202.095,130.544 199,114.5C 198.333,120.167 198.333,125.833 199,131.5C 201.849,146.58 205.016,161.58 208.5,176.5C 205.232,177.487 201.898,177.82 198.5,177.5C 198.5,195.167 198.5,212.833 198.5,230.5C 193.833,230.5 189.167,230.5 184.5,230.5C 184.5,212.833 184.5,195.167 184.5,177.5C 182.833,177.5 181.167,177.5 179.5,177.5C 179.5,195.167 179.5,212.833 179.5,230.5C 174.833,230.5 170.167,230.5 165.5,230.5C 165.5,212.833 165.5,195.167 165.5,177.5C 162.5,177.5 159.5,177.5 156.5,177.5C 159.138,163.475 161.972,149.475 165,135.5C 165.667,129.5 165.667,123.5 165,117.5C 162.333,128.833 159.667,140.167 157,151.5C 152.205,157.089 147.872,156.756 144,150.5C 141.461,138.804 138.794,127.138 136,115.5C 135.5,153.832 135.333,192.165 135.5,230.5C 130.833,230.5 126.167,230.5 121.5,230.5C 121.5,206.5 121.5,182.5 121.5,158.5C 119.833,158.5 118.167,158.5 116.5,158.5C 116.5,182.5 116.5,206.5 116.5,230.5C 111.833,230.5 107.167,230.5 102.5,230.5C 103.152,192.508 102.985,154.508 102,116.5C 99.6486,127.906 96.9819,139.239 94,150.5C 89.6667,157.167 85.3333,157.167 81,150.5C 78.3333,138.5 75.6667,126.5 73,114.5C 72.3333,120.167 72.3333,125.833 73,131.5C 76.1048,146.525 79.2715,161.525 82.5,176.5C 79.2317,177.487 75.8984,177.82 72.5,177.5C 72.5,195.167 72.5,212.833 72.5,230.5C 67.8333,230.5 63.1667,230.5 58.5,230.5C 58.5,212.833 58.5,195.167 58.5,177.5C 56.8333,177.5 55.1667,177.5 53.5,177.5C 53.5,195.167 53.5,212.833 53.5,230.5C 48.8333,230.5 44.1667,230.5 39.5,230.5C 39.5,212.833 39.5,195.167 39.5,177.5C 36.5,177.5 33.5,177.5 30.5,177.5C 33.1387,163.473 35.972,149.473 39,135.5C 39.6667,129.5 39.6667,123.5 39,117.5C 36.6473,128.911 33.9806,140.244 31,151.5C 26.8625,156.763 22.8625,156.763 19,151.5C 21.0373,133.978 24.3706,116.645 29,99.5C 35.126,94.356 41.9593,90.6893 49.5,88.5 Z"/></g>
<g><path style="opacity:0.803" fill="#fdfffd" d="M 233.5,113.5 C 236.292,113.452 238.125,114.785 239,117.5C 239.5,152.832 239.667,188.165 239.5,223.5C 240.833,223.5 242.167,223.5 243.5,223.5C 243.5,202.5 243.5,181.5 243.5,160.5C 246.167,160.5 248.833,160.5 251.5,160.5C 251.5,181.5 251.5,202.5 251.5,223.5C 253.167,223.5 254.833,223.5 256.5,223.5C 256.333,187.832 256.5,152.165 257,116.5C 259.179,112.648 261.512,112.648 264,116.5C 264.5,154.499 264.667,192.499 264.5,230.5C 253.5,230.5 242.5,230.5 231.5,230.5C 231.333,192.165 231.5,153.832 232,115.5C 232.717,114.956 233.217,114.289 233.5,113.5 Z"/></g>
</svg>
